#N canvas 1031 294 329 369 10;
#X obj 22 19 netreceive 3001 1;
#X obj 72 137 dac~;
#X obj 237 197 loadbang;
#X obj 237 32 vsl 15 64 0 1 0 0 noise noise empty 0 -9 0 10 -228856
-1 -1 6300 1;
#X obj 237 121 tgl 15 0 empty sound empty 17 7 0 10 -262144 -1 -1 1
1;
#X msg 237 150 \; pd dsp \$1;
#X obj 237 320 soundfiler;
#N canvas 0 0 450 300 (subpatch) 0;
#X array wave 16319 float 2;
#X coords 0 1 16319 -1 200 140 1;
#X restore 22 196 graph;
#N canvas 846 370 450 300 noise 0;
#X obj 90 128 noise~;
#X obj 25 36 unpack f f f f;
#N canvas 230 88 450 300 bal 0;
#X obj 41 25 inlet;
#X obj 41 121 * -1;
#X obj 41 149 + 1;
#X obj 41 183 outlet;
#X obj 41 96 t f f;
#X obj 107 183 outlet;
#X obj 41 48 + 5;
#X obj 41 73 / 10;
#X connect 0 0 6 0;
#X connect 1 0 2 0;
#X connect 2 0 3 0;
#X connect 4 0 1 0;
#X connect 4 1 5 0;
#X connect 6 0 7 0;
#X connect 7 0 4 0;
#X restore 25 186 pd bal;
#X obj 90 219 *~ 1;
#X obj 151 219 *~ 1;
#X obj 25 9 inlet;
#X obj 90 254 outlet~;
#X obj 151 254 outlet~;
#X obj 91 186 *~ 1;
#X obj 91 156 bp~ 100 5;
#X obj 120 70 abs;
#X obj 120 101 * 30;
#X obj 197 169 r noise;
#X connect 0 0 9 0;
#X connect 1 0 2 0;
#X connect 1 3 10 0;
#X connect 2 0 3 1;
#X connect 2 1 4 1;
#X connect 3 0 6 0;
#X connect 4 0 7 0;
#X connect 5 0 1 0;
#X connect 8 0 3 0;
#X connect 8 0 4 0;
#X connect 9 0 8 0;
#X connect 10 0 11 0;
#X connect 11 0 9 1;
#X connect 12 0 8 1;
#X restore 22 81 pd noise;
#N canvas 959 333 450 300 bump 0;
#X obj 107 157 tabplay~ wave;
#X obj 107 132 bng 15 250 50 0 empty empty empty 17 7 0 10 -262144
-1 -1;
#X obj 107 188 *~ 1;
#N canvas 230 88 450 300 bal 0;
#X obj 41 25 inlet;
#X obj 41 121 * -1;
#X obj 41 149 + 1;
#X obj 41 183 outlet;
#X obj 41 96 t f f;
#X obj 107 183 outlet;
#X obj 41 48 + 5;
#X obj 41 73 / 10;
#X connect 0 0 6 0;
#X connect 1 0 2 0;
#X connect 2 0 3 0;
#X connect 4 0 1 0;
#X connect 4 1 5 0;
#X connect 6 0 7 0;
#X connect 7 0 4 0;
#X restore 51 188 pd bal;
#X obj 106 221 *~ 1;
#X obj 146 221 *~ 1;
#X obj 133 131 * 1;
#X obj 76 21 inlet;
#X obj 106 249 outlet~;
#X obj 170 249 outlet~;
#X obj 76 48 unpack f f f f;
#X obj 107 80 < -3;
#X obj 107 102 sel 1;
#X obj 171 102 / 20;
#X obj 171 76 abs;
#X obj 216 114 r bump;
#X connect 0 0 2 0;
#X connect 1 0 0 0;
#X connect 2 0 4 0;
#X connect 2 0 5 0;
#X connect 3 0 4 1;
#X connect 3 1 5 1;
#X connect 4 0 8 0;
#X connect 5 0 9 0;
#X connect 6 0 2 1;
#X connect 7 0 10 0;
#X connect 10 0 3 0;
#X connect 10 1 11 0;
#X connect 10 3 14 0;
#X connect 11 0 12 0;
#X connect 12 0 1 0;
#X connect 13 0 6 0;
#X connect 14 0 13 0;
#X connect 15 0 6 1;
#X restore 94 81 pd bump;
#X obj 257 32 vsl 15 64 0 1 0 0 bump bump empty 0 -9 0 10 -228856 -1
-1 6300 1;
#X msg 237 222 \; sound 1 \; noise 1 \; bump 1;
#X obj 22 44 route list;
#X msg 237 295 read -resize thud1.wav wave;
#X connect 0 0 12 0;
#X connect 2 0 11 0;
#X connect 2 0 13 0;
#X connect 4 0 5 0;
#X connect 8 0 1 0;
#X connect 8 1 1 1;
#X connect 9 0 1 0;
#X connect 9 1 1 1;
#X connect 12 0 8 0;
#X connect 12 0 9 0;
#X connect 13 0 6 0;
