#N canvas 422 104 565 383 10;
#X obj 25 18 tgl 15 0 empty render empty 17 7 0 10 -262144 -1 -1 0
1;
#X obj 401 114 gemhead;
#X obj 401 334 world_light;
#X floatatom 442 185 5 0 0 0 - - -;
#X floatatom 483 185 5 0 0 0 - - -;
#X obj 25 175 loadbang;
#X obj 218 18 tgl 15 0 empty play empty 17 7 0 10 -262144 -1 -1 0 1
;
#N canvas 453 386 450 300 texture 0;
#X obj 37 17 inlet;
#X obj 37 205 outlet;
#X obj 37 162 pix_texture;
#X obj 37 89 spigot 1;
#X obj 115 89 spigot 0;
#X obj 168 17 inlet;
#X obj 168 40 * -1;
#X obj 168 62 + 1;
#X obj 37 133 pix_image fractal.jpg;
#X connect 0 0 3 0;
#X connect 0 0 4 0;
#X connect 2 0 1 0;
#X connect 3 0 8 0;
#X connect 4 0 1 0;
#X connect 5 0 3 1;
#X connect 5 0 6 0;
#X connect 6 0 7 0;
#X connect 7 0 4 1;
#X connect 8 0 2 0;
#X restore 401 249 pd texture;
#X obj 401 157 color 1 1 1;
#X obj 401 304 sphere 0.75 100;
#X obj 25 48 r win;
#X obj 401 275 ortho;
#X obj 505 260 tgl 15 0 empty ortho empty 17 7 0 10 -262144 -1 -1 1
1;
#X obj 505 234 tgl 15 0 empty texture empty 17 7 0 10 -262144 -1 -1
1 1;
#X obj 25 76 gemwin 25;
#X obj 324 112 tgl 15 0 empty empty empty 17 7 0 10 -262144 -1 -1 0
1;
#X obj 218 141 route list;
#X msg 309 264 -24.79;
#X msg 260 264 -9.81;
#X msg 214 264 -1.62;
#X obj 218 117 ball;
#X obj 218 168 unpack f f f f;
#N canvas 780 419 450 300 sound 0;
#X obj 119 162 netsend 1;
#X msg 219 145 connect localhost 3001;
#X obj 119 23 inlet;
#X obj 23 23 inlet;
#X obj 23 115 sel 0 1;
#X msg 23 145 disconnect;
#X obj 119 114 spigot;
#X obj 23 57 t f f;
#X obj 119 54 list prepend send;
#X obj 119 77 list trim;
#X connect 1 0 0 0;
#X connect 2 0 8 0;
#X connect 3 0 7 0;
#X connect 4 0 5 0;
#X connect 4 1 1 0;
#X connect 5 0 0 0;
#X connect 6 0 0 0;
#X connect 7 0 4 0;
#X connect 7 1 6 1;
#X connect 8 0 9 0;
#X connect 9 0 6 0;
#X restore 324 134 pd sound;
#N canvas 597 216 450 373 mouse 0;
#X obj 87 167 sel 1;
#X obj 86 190 bng 15 250 50 0 empty empty empty 17 7 0 10 -262144 -1
-1;
#X obj 29 166 f;
#X obj 58 166 f;
#X obj 87 212 t b b;
#X obj 29 241 pack f f;
#X obj 29 298 outlet;
#X obj 76 49 * -1;
#X obj 47 14 gemmouse 8 8;
#X obj 28 61 - 4;
#X obj 76 75 + 4;
#X obj 28 103 max -3;
#X obj 28 126 min 3;
#X obj 76 103 max -3;
#X obj 76 126 min 3;
#X msg 29 268 mouse \$1 \$2;
#X connect 0 0 1 0;
#X connect 1 0 4 0;
#X connect 2 0 5 0;
#X connect 3 0 5 1;
#X connect 4 0 2 0;
#X connect 4 1 3 0;
#X connect 5 0 15 0;
#X connect 7 0 10 0;
#X connect 8 0 9 0;
#X connect 8 1 7 0;
#X connect 8 2 0 0;
#X connect 9 0 11 0;
#X connect 10 0 13 0;
#X connect 11 0 12 0;
#X connect 12 0 2 1;
#X connect 13 0 14 0;
#X connect 14 0 3 1;
#X connect 15 0 6 0;
#X restore 121 76 pd mouse;
#X obj 218 47 metro 40;
#X msg 218 75 step 0.04;
#X obj 306 75 r control;
#X msg 260 300 \; control yacc \$1;
#X text 47 18 Graphics window;
#X text 22 143 Initialization;
#X text 210 237 Vertical acceleration;
#X text 399 88 Rendering chain;
#X text 241 18 Bouncing ball animation;
#X obj 401 212 translateXYZ 0 0 0;
#X msg 25 209 \; win dimen 500 500 \; win create \; win color 0.6 0.6
0.9 \; win lighting 1 \; control xvel 1.2 \; control yacc -9.81 \;
ortho 1 \; texture 1;
#X connect 0 0 14 0;
#X connect 1 0 8 0;
#X connect 3 0 33 1;
#X connect 4 0 33 2;
#X connect 5 0 34 0;
#X connect 6 0 24 0;
#X connect 7 0 11 0;
#X connect 8 0 33 0;
#X connect 9 0 2 0;
#X connect 10 0 14 0;
#X connect 11 0 9 0;
#X connect 12 0 11 0;
#X connect 13 0 7 1;
#X connect 15 0 22 0;
#X connect 16 0 21 0;
#X connect 17 0 27 0;
#X connect 18 0 27 0;
#X connect 19 0 27 0;
#X connect 20 0 16 0;
#X connect 20 0 22 1;
#X connect 21 0 3 0;
#X connect 21 1 4 0;
#X connect 23 0 20 0;
#X connect 24 0 25 0;
#X connect 25 0 20 0;
#X connect 26 0 20 0;
#X connect 33 0 7 0;
