#N canvas 733 236 441 359 10;
#N canvas 0 0 450 300 (subpatch) 0;
#X array samples 4800 float 2;
#X coords 0 1 4800 -1 200 140 1;
#X restore 199 152 graph;
#X obj 42 20 tgl 15 0 empty play empty 17 7 0 10 -262144 -1 -1 0 1
;
#N canvas 64 251 450 300 play 0;
#X obj 44 24 inlet;
#X msg 74 136 reset;
#X obj 74 79 sel 0;
#X obj 44 165 outlet;
#X obj 44 107 metro 40;
#X obj 44 54 t f f f;
#X obj 97 24 r rate;
#X connect 0 0 5 0;
#X connect 1 0 3 0;
#X connect 2 0 1 0;
#X connect 4 0 3 0;
#X connect 5 0 4 0;
#X connect 5 1 2 0;
#X connect 6 0 4 1;
#X restore 42 50 pd play;
#X obj 42 227 dac~;
#X obj 42 137 tabplay~ samples;
#X obj 42 193 *~ 1;
#X obj 106 264 vsl 15 64 0 1 0 0 vol vol empty 0 -9 0 10 -262144 -1
-1 6300 1;
#X text 130 286 volume;
#X obj 42 80 wavefile "guitar.wav" "samples";
#X obj 67 162 r vol;
#X obj 42 108 route bang;
#N canvas 801 319 450 300 config 0;
#X msg 104 234 \; samples resize \$1;
#X obj 104 164 * 48;
#X floatatom 104 109 5 0 0 0 - winsize -;
#X obj 104 136 t f f;
#X obj 146 165 s rate;
#X floatatom 104 199 5 0 0 0 - - -;
#X connect 1 0 5 0;
#X connect 2 0 3 0;
#X connect 3 0 1 0;
#X connect 3 1 4 0;
#X connect 5 0 0 0;
#X coords 0 -1 1 1 50 30 2 100 100;
#X restore 199 303 pd config;
#X obj 288 25 loadbang;
#X msg 288 57 \; vol 1 \; winsize 100 \; pd dsp 1;
#X text 262 311 window size (msec);
#X connect 1 0 2 0;
#X connect 2 0 8 0;
#X connect 4 0 5 0;
#X connect 5 0 3 0;
#X connect 5 0 3 1;
#X connect 8 0 10 0;
#X connect 9 0 5 1;
#X connect 10 0 4 0;
#X connect 12 0 13 0;
#X coords 0 0 1 1 85 60 0;
